<?xml version="1.0" encoding="utf-8"?>
<!-- Generator: Adobe Illustrator 24.3.0, SVG Export Plug-In . SVG Version: 6.00 Build 0)  -->
<svg version="1.1"
	 id="svg2" inkscape:version="0.48.4 r9939" sodipodi:docname="pfd_vsi_scale.svg" xmlns:cc="http://creativecommons.org/ns#" xmlns:dc="http://purl.org/dc/elements/1.1/" xmlns:inkscape="http://www.inkscape.org/namespaces/inkscape" xmlns:rdf="http://www.w3.org/1999/02/22-rdf-syntax-ns#" xmlns:sodipodi="http://sodipodi.sourceforge.net/DTD/sodipodi-0.dtd" xmlns:svg="http://www.w3.org/2000/svg"
	 xmlns="http://www.w3.org/2000/svg" xmlns:xlink="http://www.w3.org/1999/xlink" x="0px" y="0px" viewBox="0 0 19 150"
	 style="enable-background:new 0 0 19 150;" xml:space="preserve">
<style type="text/css">
	.st0{fill:none;}
	.st1{fill:#FFFFFF;}
</style>
<sodipodi:namedview  bordercolor="#666666" borderopacity="1.0" id="base" inkscape:current-layer="layer1" inkscape:cx="-1789.8906" inkscape:cy="58.29529" inkscape:document-units="px" inkscape:guide-bbox="true" inkscape:object-nodes="true" inkscape:object-paths="false" inkscape:pageopacity="0.0" inkscape:pageshadow="2" inkscape:snap-center="false" inkscape:snap-intersection-paths="true" inkscape:snap-midpoints="true" inkscape:snap-nodes="true" inkscape:snap-object-midpoints="false" inkscape:snap-smooth-nodes="false" inkscape:window-height="1005" inkscape:window-maximized="1" inkscape:window-width="1920" inkscape:window-x="-9" inkscape:window-y="-9" inkscape:zoom="0.12499999" pagecolor="#ffffff" showgrid="false" showguides="true">
	</sodipodi:namedview>
<g id="layer1" transform="translate(0,-902.36218)" inkscape:groupmode="layer" inkscape:label="Layer 1">
	<g id="g4593" transform="translate(-350,99.999997)">
		<rect id="rect3333-8" x="350" y="787.4" class="st0" width="19" height="180"/>
		<g id="g4566">
			<rect id="rect4256" x="350" y="876.8" class="st1" width="10" height="1.2"/>
			<rect id="rect4256-2" x="356" y="858.8" class="st1" width="4" height="1.2"/>
			<rect id="rect4256-2-4" x="356" y="840.8" class="st1" width="4" height="1.2"/>
			<rect id="rect4256-2-4-5" x="356" y="828.8" class="st1" width="4" height="1.2"/>
			<path id="rect4256-2-4-5-5" inkscape:connector-curvature="0" class="st1" d="M356,816.8h4v1.2h-4V816.8z"/>
			<rect id="rect4256-2-4-5-5-1" x="356" y="804.8" class="st1" width="4" height="1.2"/>
			<rect id="rect4256-2-4-5-5-1-7" x="356" y="792.8" class="st1" width="4" height="1.2"/>
			<rect id="rect4256-2-5" x="356" y="894.8" class="st1" width="4" height="1.2"/>
			<path id="rect4256-2-4-2" inkscape:connector-curvature="0" class="st1" d="M356,914h4v-1.2h-4V914z"/>
			<rect id="rect4256-2-4-5-7" x="356" y="924.8" class="st1" width="4" height="1.2"/>
			<rect id="rect4256-2-4-5-5-6" x="356" y="936.8" class="st1" width="4" height="1.2"/>
			<rect id="rect4256-2-4-5-5-1-1" x="356" y="948.8" class="st1" width="4" height="1.2"/>
			<rect id="rect4256-2-4-5-5-1-7-4" x="356" y="960.8" class="st1" width="4" height="1.2"/>
			<g id="text4449">
				<path id="path4557" inkscape:connector-curvature="0" class="st1" d="M351.2,845.5v-1.2h1.4v-5.6l-1.4,1.2v-1.3l1.4-1.3h1.1v7.1
					h1.3v1.2L351.2,845.5L351.2,845.5z"/>
			</g>
			<g id="text4449-2">
				<path id="path4560" inkscape:connector-curvature="0" class="st1" d="M351,821.6v-1.2c0.1-0.4,0.3-0.8,0.5-1.1
					c0.2-0.2,0.4-0.6,0.6-1s0.4-0.5,0.6-0.7s0.4-0.5,0.5-0.7c0.2-0.2,0.3-0.5,0.4-0.7s0.1-0.5,0.1-0.7c0-0.4-0.1-0.6-0.2-0.8
					c-0.1-0.1-0.3-0.2-0.6-0.2c-0.2,0-0.4,0.1-0.5,0.2c-0.1,0.1-0.2,0.5-0.2,0.8l-1.1-0.1c0-0.4,0.1-0.6,0.2-1
					c0.1-0.2,0.2-0.5,0.4-0.7c0.2-0.2,0.3-0.4,0.6-0.5c0.3-0.1,0.5-0.2,0.8-0.2s0.6,0,0.8,0.1c0.2,0.1,0.4,0.2,0.6,0.5
					c0.2,0.2,0.3,0.5,0.4,0.7s0.1,0.6,0.1,1s-0.1,0.7-0.2,1.1s-0.2,0.6-0.4,0.8c-0.2,0.2-0.3,0.5-0.5,0.7l-0.6,0.7
					c-0.2,0.2-0.4,0.5-0.5,0.7s-0.3,0.5-0.3,0.7h2.6v1.3H351V821.6z"/>
			</g>
			<g id="text4449-22">
				<path id="path4564" inkscape:connector-curvature="0" class="st1" d="M355,794.8c0,0.4,0,0.8-0.1,1.1c-0.1,0.4-0.2,0.6-0.4,0.8
					c-0.2,0.2-0.4,0.5-0.6,0.6s-0.5,0.2-0.8,0.2c-0.7,0-1.2-0.4-1.5-1.1c-0.3-0.7-0.5-1.7-0.5-3c0-1.4,0.2-2.6,0.5-3.4
					s0.9-1.1,1.5-1.1c0.2,0,0.4,0,0.6,0.1s0.3,0.1,0.5,0.4c0.1,0.1,0.3,0.4,0.4,0.6c0.1,0.2,0.2,0.5,0.2,0.8l-1.1,0.2
					c-0.1-0.2-0.1-0.5-0.3-0.6c-0.2-0.1-0.3-0.2-0.4-0.2c-0.3,0-0.5,0.2-0.7,0.7s-0.3,1.1-0.3,2c0.1-0.2,0.3-0.5,0.5-0.7
					c0.2-0.1,0.5-0.2,0.7-0.2s0.5,0,0.7,0.1s0.4,0.2,0.5,0.5c0.1,0.2,0.3,0.5,0.3,0.8S355,794.4,355,794.8L355,794.8z M353.9,794.8
					c0-0.2,0-0.5-0.1-0.6s-0.1-0.4-0.2-0.5s-0.2-0.2-0.3-0.2c-0.1-0.1-0.2-0.1-0.4-0.1c-0.1,0-0.2,0-0.3,0.1
					c-0.1,0.1-0.2,0.1-0.3,0.2c-0.1,0.1-0.1,0.2-0.2,0.4c0,0.1-0.1,0.4-0.1,0.6c0,0.2,0,0.5,0.1,0.6s0.1,0.4,0.2,0.5
					s0.2,0.2,0.3,0.4c0.1,0.1,0.2,0.1,0.4,0.1c0.3,0,0.5-0.1,0.6-0.4S353.9,795.3,353.9,794.8L353.9,794.8z"/>
			</g>
			<g id="text4449-6">
				<path id="path4553" inkscape:connector-curvature="0" class="st1" d="M351.2,917.5v-1.2h1.4v-5.6l-1.4,1.2v-1.3l1.4-1.3h1.1v7.1
					h1.3v1.2L351.2,917.5L351.2,917.5z"/>
			</g>
			<g id="text4449-2-5">
				<path id="path4550" inkscape:connector-curvature="0" class="st1" d="M351,941.6v-1.2c0.1-0.4,0.3-0.8,0.5-1.1
					c0.2-0.2,0.4-0.6,0.6-1s0.4-0.5,0.6-0.7s0.4-0.5,0.5-0.7c0.2-0.2,0.3-0.5,0.4-0.7s0.1-0.5,0.1-0.7c0-0.4-0.1-0.6-0.2-0.8
					c-0.1-0.1-0.3-0.2-0.6-0.2c-0.2,0-0.4,0.1-0.5,0.2c-0.1,0.1-0.2,0.5-0.2,0.8l-1.1-0.1c0-0.4,0.1-0.6,0.2-1
					c0.1-0.2,0.2-0.5,0.4-0.7c0.2-0.2,0.3-0.4,0.6-0.5c0.3-0.1,0.5-0.2,0.8-0.2s0.6,0,0.8,0.1c0.2,0.1,0.4,0.2,0.6,0.5
					c0.2,0.2,0.3,0.5,0.4,0.7s0.1,0.6,0.1,1s-0.1,0.7-0.2,1.1s-0.2,0.6-0.4,0.8c-0.2,0.2-0.3,0.5-0.5,0.7l-0.6,0.7
					c-0.2,0.2-0.4,0.5-0.5,0.7s-0.3,0.5-0.3,0.7h2.6v1.3H351V941.6z"/>
			</g>
			<g id="text4449-22-6">
				<path id="path4547" inkscape:connector-curvature="0" class="st1" d="M355,962.8c0,0.4,0,0.8-0.1,1.1c-0.1,0.4-0.2,0.6-0.4,0.8
					c-0.2,0.2-0.4,0.5-0.6,0.6s-0.5,0.2-0.8,0.2c-0.7,0-1.2-0.4-1.5-1.1c-0.3-0.7-0.5-1.7-0.5-3c0-1.4,0.2-2.6,0.5-3.4
					s0.9-1.1,1.5-1.1c0.2,0,0.4,0,0.6,0.1s0.3,0.1,0.5,0.4c0.1,0.1,0.3,0.4,0.4,0.6c0.1,0.2,0.2,0.5,0.2,0.8l-1.1,0.2
					c-0.1-0.2-0.1-0.5-0.3-0.6c-0.2-0.1-0.3-0.2-0.4-0.2c-0.3,0-0.5,0.2-0.7,0.7s-0.3,1.1-0.3,2c0.1-0.2,0.3-0.5,0.5-0.7
					c0.2-0.1,0.5-0.2,0.7-0.2s0.5,0,0.7,0.1s0.4,0.2,0.5,0.5c0.1,0.2,0.3,0.5,0.3,0.8S355,962.4,355,962.8L355,962.8z M353.9,962.8
					c0-0.2,0-0.5-0.1-0.6c0-0.1-0.1-0.4-0.2-0.5s-0.2-0.2-0.3-0.2c-0.1-0.1-0.2-0.1-0.4-0.1c-0.1,0-0.2,0-0.3,0.1
					c-0.1,0.1-0.2,0.1-0.3,0.2c-0.1,0.1-0.1,0.2-0.2,0.4c0,0.1-0.1,0.4-0.1,0.6c0,0.2,0,0.5,0.1,0.6s0.1,0.4,0.2,0.5
					s0.2,0.2,0.3,0.4c0.1,0.1,0.2,0.1,0.4,0.1c0.3,0,0.5-0.1,0.6-0.4S353.9,963.3,353.9,962.8L353.9,962.8z"/>
			</g>
		</g>
	</g>
</g>
</svg>
