<?xml version="1.0" encoding="utf-8"?>
<!-- Generator: Adobe Illustrator 24.3.0, SVG Export Plug-In . SVG Version: 6.00 Build 0)  -->
<svg version="1.1"
	 id="svg2" inkscape:version="0.48.4 r9939" sodipodi:docname="pfd_adi_mask.svg" xmlns:cc="http://creativecommons.org/ns#" xmlns:dc="http://purl.org/dc/elements/1.1/" xmlns:inkscape="http://www.inkscape.org/namespaces/inkscape" xmlns:rdf="http://www.w3.org/1999/02/22-rdf-syntax-ns#" xmlns:sodipodi="http://sodipodi.sourceforge.net/DTD/sodipodi-0.dtd" xmlns:svg="http://www.w3.org/2000/svg"
	 xmlns="http://www.w3.org/2000/svg" xmlns:xlink="http://www.w3.org/1999/xlink" x="0px" y="0px" viewBox="0 0 300 300"
	 style="enable-background:new 0 0 300 300;" xml:space="preserve">
<style type="text/css">
	.st0{fill:#FFFFFF;}
</style>
<sodipodi:namedview  bordercolor="#666666" borderopacity="1.0" id="base" inkscape:current-layer="layer1" inkscape:cx="-1111.3574" inkscape:cy="317.02537" inkscape:document-units="px" inkscape:guide-bbox="true" inkscape:object-nodes="true" inkscape:object-paths="false" inkscape:pageopacity="0.0" inkscape:pageshadow="2" inkscape:snap-center="true" inkscape:snap-intersection-paths="true" inkscape:snap-midpoints="true" inkscape:snap-nodes="true" inkscape:snap-object-midpoints="true" inkscape:snap-smooth-nodes="false" inkscape:window-height="1030" inkscape:window-maximized="1" inkscape:window-width="1920" inkscape:window-x="0" inkscape:window-y="0" inkscape:zoom="0.24999999" pagecolor="#ffffff" showgrid="false" showguides="true">
	</sodipodi:namedview>
<g id="g12107" transform="translate(0,20.000007)">
	<path id="path3397-2-2" inkscape:connector-curvature="0" sodipodi:nodetypes="cccc" class="st0" d="M149,36.5l-4-6.9h8L149,36.5z"
		/>
	<g id="g12095">
		
			<rect id="rect11859" x="158.2" y="34.5" inkscape:transform-center-x="-11.721265" inkscape:transform-center-y="-66.474548" transform="matrix(0.1736 -0.9848 0.9848 0.1736 98.3168 187.2247)" class="st0" width="5" height="1">
		</rect>
		
			<rect id="rect11859-9" x="113.5" y="35.9" inkscape:transform-center-x="34.999998" inkscape:transform-center-y="-60.621775" transform="matrix(0.866 -0.5 0.5 0.866 -5.1671 62.4769)" class="st0" width="1" height="10">
		</rect>
		
			<rect id="rect11859-90" x="179" y="40.4" inkscape:transform-center-x="-34.999993" inkscape:transform-center-y="-60.621776" transform="matrix(0.5 -0.866 0.866 0.5 56.5965 179.7889)" class="st0" width="10" height="1">
		</rect>
		
			<rect id="rect11859-5" x="136.8" y="32.5" inkscape:transform-center-x="11.721249" inkscape:transform-center-y="-66.474522" transform="matrix(0.9848 -0.1736 0.1736 0.9848 -3.9969 24.3703)" class="st0" width="1" height="5">
		</rect>
		
			<rect id="rect11859-5-6" x="125.4" y="35.6" inkscape:transform-center-x="23.086352" inkscape:transform-center-y="-63.42923" transform="matrix(0.9397 -0.342 0.342 0.9397 -5.4282 45.3611)" class="st0" width="1" height="5">
		</rect>
		
			<rect id="rect11859-5-6-3" x="100.8" y="51.3" inkscape:transform-center-x="47.729712" inkscape:transform-center-y="-47.729706" transform="matrix(0.7071 -0.7071 0.7071 0.7071 -8.3615 87.3585)" class="st0" width="1" height="5">
		</rect>
		
			<rect id="rect11859-5-6-3-4" x="90" y="65.3" inkscape:transform-center-x="58.456709" inkscape:transform-center-y="-33.749993" transform="matrix(0.5 -0.866 0.866 0.5 -13.4035 112.2889)" class="st0" width="1" height="5">
		</rect>
		
			<rect id="rect11859-3" x="169.6" y="37.6" inkscape:transform-center-x="-23.086383" inkscape:transform-center-y="-63.429255" transform="matrix(0.342 -0.9397 0.9397 0.342 77.4525 186.7595)" class="st0" width="5" height="1">
		</rect>
		
			<rect id="rect11859-3-2" x="194.2" y="53.3" inkscape:transform-center-x="-47.729756" inkscape:transform-center-y="-47.729683" transform="matrix(0.7071 -0.7071 0.7071 0.7071 19.5979 154.8585)" class="st0" width="5" height="1">
		</rect>
		
			<rect id="rect11859-3-2-0" x="205" y="67.3" inkscape:transform-center-x="-58.456764" inkscape:transform-center-y="-33.749951" transform="matrix(0.866 -0.5 0.5 0.866 -6.0822 112.8055)" class="st0" width="5" height="1">
		</rect>
	</g>
</g>
</svg>
